#!OML:ASF X:\für Bonn\!DataBase\2005_08_10_Bjorn_Final\c3d\bjorn.ASF
:FULLY-SPECIFIED
:DEGREES
181
root -0.500596 19.2371 2.29539 -178.835 3.35974 -175.897
lowerback -9.50906 -0.509522 4.0399
upperback 5.56234 -1.31711 3.1843
thorax 11.3666 -0.350768 0.952052
lowerneck -8.12973 -3.21801 3.79848
upperneck 12.3787 -4.86168 2.11677
head 5.02512 -1.93955 -0.273632
rclavicle -3.67752e-015 -5.80451e-014
rhumerus -24.0164 8.85858 -83.4149
rradius 55.2108
rwrist 13.174
rhand -25.667 22.5133
rfingers 7.12502
rthumb 0.867393 -7.46473
lclavicle -3.67752e-015 -5.80451e-014
lhumerus -32.049 -10.2334 72.3048
lradius 50.9719
lwrist -14.3193
lhand 8.20135 -7.84976
lfingers 7.12502
lthumb 33.4185 19.0612
rfemur -13.1994 -0.442494 18.1422
rtibia 38.1606
rfoot -21.3607 9.57832
rtoes -25.5388
lfemur -10.1608 15.3015 -16.8984
ltibia 29.8061
lfoot -14.8565 -7.25045
ltoes 8.54647
182
root -0.502415 19.2465 2.29595 -178.251 4.33709 -175.805
lowerback -9.60686 -0.294093 4.60661
upperback 5.34448 -1.11414 3.24818
thorax 11.177 -0.219695 0.737704
lowerneck -8.37166 -3.06207 3.9631
upperneck 12.3705 -4.64944 1.6945
head 5.05021 -1.86327 -0.421427
rclavicle -6.4605e-015 -3.4191e-014
rhumerus -23.6992 9.08913 -83.775
rradius 56.0947
rwrist 13.0071
rhand -25.7195 22.3881
rfingers 7.12502
rthumb 0.816623 -7.59004
lclavicle -6.4605e-015 -3.4191e-014
lhumerus -33.4604 -7.00429 72.1742
lradius 51.4641
lwrist -10.1424
lhand 7.52031 -6.9432
lfingers 7.12502
lthumb 32.7708 20.1051
rfemur -13.613 -0.64089 18.0515
rtibia 37.4481
rfoot -21.5244 10.0438
rtoes -24.9479
lfemur -10.7412 15.6858 -16.9781
ltibia 29.854
lfoot -15.0167 -6.67304
ltoes 8.5955
183
root -0.501938 19.2532 2.29683 -177.7 5.23315 -175.695
lowerback -9.68483 -0.100419 5.16347
upperback 5.15312 -0.935257 3.30899
thorax 11.0092 -0.100389 0.521882
lowerneck -8.56892 -2.91819 4.13346
upperneck 12.3098 -4.45063 1.27116
head 5.05239 -1.79558 -0.569965
rclavicle 1.05356e-014 -1.03368e-014
rhumerus -23.3833 9.18513 -84.1866
rradius 56.9039
rwrist 12.9172
rhand -25.6902 22.2397
rfingers 7.12502
rthumb 0.844946 -7.73842
lclavicle 1.05356e-014 -1.03368e-014
lhumerus -34.6029 -3.87876 71.936
lradius 51.6057
lwrist -5.97899
lhand 6.59619 -6.40078
lfingers 7.12502
lthumb 31.8912 20.8269
rfemur -14.0057 -0.907985 18.0102
rtibia 36.7441
rfoot -21.7367 10.4076
rtoes -24.6206
lfemur -11.3105 16.1902 -17.018
ltibia 29.93
lfoot -15.134 -6.26852
ltoes 8.60159
184
root -0.499423 19.2595 2.29654 -177.152 6.05345 -175.62
lowerback -9.79475 0.0890344 5.67569
upperback 4.98927 -0.757573 3.3422
thorax 10.8953 0.0159961 0.302001
lowerneck -8.80349 -2.78512 4.29367
upperneck 12.2367 -4.2724 0.886416
head 5.059 -1.736 -0.706734
rclavicle -1.04362e-014 3.65764e-014
rhumerus -23.0575 9.1089 -84.6541
rradius 57.628
rwrist 12.898
rhand -25.6894 22.1718
rfingers 7.12502
rthumb 0.845693 -7.80629
lclavicle -1.04362e-014 3.65764e-014
lhumerus -35.6489 -0.806899 71.5558
lradius 51.73
lwrist -2.01846
lhand 5.88363 -6.33811
lfingers 7.12502
lthumb 31.2124 21.0227
rfemur -14.421 -1.28597 17.9622
rtibia 36.0748
rfoot -21.9884 10.5619
rtoes -24.9016
lfemur -11.8969 16.7005 -17.0909
ltibia 30.0388
lfoot -15.2169 -5.98939
ltoes 8.7653
185
root -0.493838 19.2645 2.2961 -176.641 6.80277 -175.565
lowerback -9.86048 0.270517 6.13988
upperback 4.82629 -0.579027 3.35676
thorax 10.7591 0.128326 0.0888038
lowerneck -9.00057 -2.67258 4.46722
upperneck 12.146 -4.12071 0.504411
head 5.05408 -1.68875 -0.845622
rclavicle 1.07344e-014 7.15625e-014
rhumerus -22.7983 8.98794 -85.1543
rradius 58.3149
rwrist 12.7954
rhand -25.6992 22.0327
rfingers 7.12502
rthumb 0.836246 -7.94541
lclavicle 1.07344e-014 7.15625e-014
lhumerus -36.6726 2.15136 71.0624
lradius 51.8561
lwrist 1.66799
lhand 5.48176 -6.58727
lfingers 7.12502
lthumb 30.8294 20.8466
rfemur -14.8258 -1.65583 17.9203
rtibia 35.4271
rfoot -22.2157 10.5563
rtoes -25.3362
lfemur -12.4954 17.5802 -17.1528
ltibia 30.1725
lfoot -15.217 -6.10021
ltoes 8.78026
186
root -0.487406 19.2687 2.29804 -176.142 7.50711 -175.524
lowerback -9.88827 0.502231 6.64237
upperback 4.67473 -0.3321 3.30263
thorax 10.6198 0.276546 -0.207275
lowerneck -9.30799 -2.59901 4.68001
upperneck 12.087 -4.045 0.211693
head 5.07817 -1.66868 -0.970284
rclavicle -1.19271e-014 -1.74931e-014
rhumerus -22.5474 8.6211 -85.7045
rradius 58.8864
rwrist 12.7143
rhand -25.7971 22.0415
rfingers 7.12502
rthumb 0.741683 -7.937
lclavicle -1.19271e-014 -1.74931e-014
lhumerus -37.6044 4.75407 70.4803
lradius 51.9531
lwrist 5.10347
lhand 5.24503 -7.25055
lfingers 7.12502
lthumb 30.6037 20.2257
rfemur -15.262 -2.04574 17.8934
rtibia 34.8118
rfoot -22.3752 10.5323
rtoes -25.9471
lfemur -13.0631 18.6152 -17.2321
ltibia 30.319
lfoot -15.2154 -6.40782
ltoes 8.68272
